# xmcd
#
# Track frame offsets:
#	150
#	12458
#	23241
#	32885
#	45645
#	54293
#	65130
#	77258
#	88318
#	100539
#	111167
#
# Disc length: 1649 seconds
# Revision: 0
# Processed by: cddbd v1.5.2PL0 Copyright (c) Steve Scherf et al.
# Submitted via: dBpowerAMP V12.0
#
DISCID=85066f0b
DTITLE=Hank Williams Jr. - Songs My Father Left Me [MGM] (L)
DYEAR=1969
DGENRE=Country
TTITLE0=1.Cajun Baby
TTITLE1=2.For Me There Is No Place
TTITLE2=3.Is This Goodbye
TTITLE3=4.I'm Just Crying 'Cause I Care
TTITLE4=5.Your Turn to Cry
TTITLE5=6.Where Do I Go From Here
TTITLE6=1.Are You Lonely Too
TTITLE7=2.Homesick
TTITLE8=3.Just Me And My Broken Heart
TTITLE9=4.My Heart Won't Let Me Go
TTITLE10=5.You Can't Take My Memories of You
EXTD=
EXTT0=
EXTT1=
EXTT2=
EXTT3=
EXTT4=
EXTT5=
EXTT6=
EXTT7=
EXTT8=
EXTT9=
EXTT10=
PLAYORDER=
